<?xml version="1.0" encoding="utf-8"?>
<!-- Generator: Adobe Illustrator 16.0.0, SVG Export Plug-In . SVG Version: 6.00 Build 0)  -->
<!DOCTYPE svg PUBLIC "-//W3C//DTD SVG 1.1//EN" "http://www.w3.org/Graphics/SVG/1.1/DTD/svg11.dtd">
<svg version="1.1" id="Layer_1" xmlns:svg="http://www.w3.org/2000/svg"
	 xmlns="http://www.w3.org/2000/svg" xmlns:xlink="http://www.w3.org/1999/xlink" x="0px" y="0px" width="216px" height="220px"
	 viewBox="216.5 127.5 216 220" enable-background="new 216.5 127.5 216 220" xml:space="preserve">
<path fill="#EDAAAA" d="M277.556,219.194c-3.374,10.366-4.48,29.43-4.48,41.905c0,41.657,20.436,68.12,46.643,68.12
	c26.208,0,47.453-33.77,47.453-75.427c0-12.476-1.917-24.233-5.291-34.599H277.556z"/>
<title>Layer 1</title>
<ellipse id="d_svg_103" opacity="0.95" fill="none" enable-background="new    " cx="320.964" cy="159.823" rx="44.399" ry="5"/>
<ellipse id="d_svg_108" opacity="0.95" fill="none" enable-background="new    " cx="320.8" cy="193" rx="44" ry="16"/>
<ellipse id="d_svg_77" opacity="0.95" fill="none" enable-background="new    " cx="319.3" cy="187" rx="50.5" ry="5"/>
<path id="d_svg_7" fill="#7F0000" stroke="#000000" stroke-width="0.1" d="M273.578,224.37l4.564-14.487l-2.842,44.158
	l-4.565,14.487L273.578,224.37z"/>
<polygon id="d_svg_72" fill="#FF007F" points="267.51,150.759 273.266,153.771 277.512,149.702 277.014,155.822 282.669,159.054 
	276.604,159.825 275.853,165.892 272.603,160.248 266.484,160.765 270.541,156.506 267.51,150.759 273.266,153.771 "/>
<path id="d_svg_8" fill="#7F0000" d="M354.082,237.395l11.001-14.795l-3.112,46.391l-11.001,14.795L354.082,237.395L354.082,237.395
	z"/>
<polygon id="d_svg_5" fill="#7F0000" points="375.856,252.217 382.85,232.405 366.931,214.527 350.1,223.29 355.616,246.584 "/>
<polygon id="d_svg_10" fill="#7F0000" points="360.464,258.479 370.771,241.976 363.108,218.297 348.065,220.167 346.431,245 "/>
<line id="d_svg_17" fill="none" stroke="#844343" stroke-width="2" x1="297" y1="244.6" x2="286" y2="277.6"/>
<line id="d_svg_18" fill="none" stroke="#6D3939" stroke-width="2" x1="299.169" y1="279.088" x2="286.768" y2="278.85"/>
<path id="d_svg_20" fill="#7F0000" d="M301.869,239.48c12.036-0.973,23.732-4.311,26.854,2.184c3.121,6.496,1.306,1.474,1.293,1.385
	s-2.925-7.037-2.938-7.125c-0.013-0.088-0.749,0.5-4.249-0.054c-3.499-0.555-8.127,0.562-8.14,0.474s-8.079,1.854-8.092,1.765
	C306.585,238.019,301.869,239.48,301.869,239.48L301.869,239.48L301.869,239.48L301.869,239.48z"/>
<ellipse id="d_svg_22" fill="#B2B267" stroke="#000000" stroke-width="2" cx="282" cy="247.6" rx="2" ry="5"/>
<ellipse id="d_svg_24" fill="#B2B267" stroke="#000000" stroke-width="2" cx="315.638" cy="247.777" rx="2" ry="5"/>
<ellipse id="d_svg_25" opacity="0.5" fill="#FF7F00" enable-background="new    " cx="281.262" cy="247.782" rx="0.979" ry="3.292"/>
<ellipse id="d_svg_26" opacity="0.5" fill="#FF7F00" enable-background="new    " cx="314.545" cy="248.316" rx="0.979" ry="3.292"/>
<ellipse id="d_svg_27" opacity="0.5" fill="#00FFFF" enable-background="new    " cx="313.476" cy="248.316" rx="0.979" ry="3.292"/>
<ellipse id="d_svg_28" opacity="0.5" fill="#00FFFF" enable-background="new    " cx="280.195" cy="247.959" rx="0.979" ry="3.292"/>
<path id="d_svg_1" fill="#7F0000" d="M288.424,290.715c0,0,2.181,2.693,6.3,1.616c4.118-1.077,4.361-0.97,4.361-1.034
	s12.599,3.08,12.599,3.016s-24.714-1.443-24.714-1.508s-3.877-1.767-1.211-2.09C288.424,290.392,288.424,290.715,288.424,290.715
	L288.424,290.715L288.424,290.715z"/>
<ellipse id="d_svg_11" opacity="0.5" fill="none" stroke="#6D3939" stroke-width="2" enable-background="new    " cx="292.79" cy="280.468" rx="6.431" ry="0.633"/>
<path id="d_svg_13" fill="#7F0000" d="M285.741,295.549c0,0,1.962,3.314,10.651,1.873c8.689-1.44,8.689-1.44,8.609-1.521
	c-0.079-0.081-3.564,2.963-9.73,2.818c-6.167-0.144-8.689-1.008-9.53-1.584C284.9,296.558,285.741,295.549,285.741,295.549
	L285.741,295.549z"/>
<polygon id="d_svg_14" fill="#A06D6D" stroke="#A07272" stroke-width="2" points="380.45,235.139 379.009,243.072 383.305,244.93 
	377.994,248.295 376.344,256.262 374.503,250.406 369.186,253.474 373.361,246.49 371.724,240.419 376.145,241.957 380.45,235.139 
	379.009,243.072 "/>
<path id="d_svg_15" fill="#7F0000" stroke="#965858" d="M289.225,315.962c0,0,9.546,4.431,17.06,1.211s2.737-3.523,2.691-3.491
	c-0.045,0.033,7.548,2.336,2.768,3.797s-14.337,2.765-17.747,1.729C290.586,318.17,289.225,315.962,289.225,315.962L289.225,315.962
	L289.225,315.962z"/>
<path id="d_svg_19" fill="#7F0000" stroke="#7F2323" stroke-width="0.3" d="M310.626,285.453c0,0-1.147,4.938,0.802,9.947
	c1.949,5.01,2.266,5.719,2.249,5.709s-3.14-4.994-3.387-8.187S310.626,285.453,310.626,285.453L310.626,285.453L310.626,285.453z"/>
<polygon id="d_svg_29" fill="#7F0000" points="372.151,278.26 377.439,266.01 376.046,245.938 369.896,245.781 367.489,265.758 "/>
<path id="d_svg_32" fill="#7F0000" stroke="#7F2323" stroke-width="0.3" d="M373.703,222.854c0,0-5.125-1.789-2.312-4.259
	c2.812-2.47,3.312-2.829,3.274-2.821c-0.038,0.007-5.881,2.715-5.112,4.08C370.32,221.219,373.703,222.854,373.703,222.854z"/>
<polygon id="d_svg_33" fill="#7F0000" points="372.25,247.699 381.275,240.379 376.31,230.965 364.217,232.468 361.707,242.811 "/>
<polygon id="d_svg_34" fill="#965858" points="384.585,241.966 371.39,230.841 348.139,232.332 346.965,244.378 369.489,250.332 "/>
<path id="d_svg_38" fill="#A07070" d="M272.739,229.458l1.724-11.83l3.923,11.293l-1.724,11.829L272.739,229.458z"/>
<polygon id="d_svg_35" fill="#EDAAAA" points="371.872,268.031 367.565,283.844 360.596,277.804 360.596,258.258 367.565,252.218 
	"/>
<polygon id="d_svg_40" fill="#7F0000" points="366.614,284.86 372.552,273.113 373.284,253.022 367.798,252.354 363.676,272.029 "/>
<path id="d_svg_44" fill="#EDAAAA" d="M275.22,218.725l22.809-0.528l-22.307,22.199L275.22,218.725z"/>
<path id="d_svg_45" fill="#EDAAAA" d="M325.058,269.123l5.61-16.535l9.372,21.619L325.058,269.123z"/>
<path id="d_svg_2" fill="#7F0000" d="M278.096,217.341l-3.466,5.381l-0.224-6.396L278.096,217.341L278.096,217.341z"/>
<ellipse id="d_svg_43" fill="#3F3F3F" stroke="#FF5656" stroke-width="0.2" cx="321.275" cy="216.812" rx="47.075" ry="4.888"/>
<ellipse id="d_svg_53" fill="#543A3A" cx="322.838" cy="217.232" rx="43.614" ry="3.994"/>
<ellipse id="d_svg_83" opacity="0.5" fill="#4AF7F7" enable-background="new    " cx="320.507" cy="176.827" rx="41.423" ry="37.375"/>
<ellipse id="d_svg_46" fill="#FF007F" cx="320.486" cy="178.103" rx="37.798" ry="33.514"/>
<polygon id="d_svg_49" fill="#FF007F" points="329.226,179.385 325.912,194.73 340.389,204.816 323.513,204.737 319.523,219.863 
	312.407,204.469 295.465,203.732 307.942,194.297 301.461,178.715 316.289,188.278 329.226,179.385 325.912,194.73 "/>
<polygon id="d_svg_50" fill="#FF007F" points="357.208,136.447 356.929,143.493 363.98,146.698 356.645,148.108 356.057,155.116 
	351.802,148.941 344.387,150.067 349.093,144.841 345.098,138.529 352.261,141.474 357.208,136.447 356.929,143.493 "/>
<ellipse id="d_svg_52" fill="#FF00FF" cx="319.719" cy="179.766" rx="31.656" ry="29.442"/>
<ellipse id="d_svg_31" transform="matrix(0.9985 0.054 -0.054 0.9985 10.5868 -17.0164)" fill="#BFBFBF" cx="320.394" cy="187.533" rx="6.75" ry="16.616"/>
<ellipse id="d_svg_30" transform="matrix(0.9997 0.0247 -0.0247 0.9997 4.8289 -7.7008)" fill="#FF00FF" cx="314.374" cy="191.771" rx="3.65" ry="16.814"/>
<ellipse id="d_svg_73" transform="matrix(0.9984 0.0558 -0.0558 0.9984 11.3219 -17.7777)" opacity="0.3" fill="#0000FF" enable-background="new    " cx="323.938" cy="193.809" rx="3.001" ry="11.982"/>
<ellipse id="d_svg_37" transform="matrix(0.9982 0.0603 -0.0603 0.9982 12.2092 -19.2811)" fill="#FF00FF" cx="325.762" cy="192.773" rx="3.622" ry="14.061"/>
<ellipse id="d_svg_76" fill="#7F7F7F" cx="320.312" cy="191.221" rx="13.5" ry="1.366"/>
<ellipse id="d_svg_16" opacity="0.8" fill="#7F7F7F" enable-background="new    " cx="320.594" cy="177.524" rx="23.344" ry="6.75"/>
<ellipse id="d_svg_23" fill="#BFBFBF" cx="320.594" cy="176.812" rx="23.344" ry="6.75"/>
<ellipse id="d_svg_54" opacity="0.3" fill="#0000FF" enable-background="new    " cx="319.937" cy="203.901" rx="15.562" ry="3.375"/>
<ellipse id="d_svg_116" opacity="0.3" fill="#7F7F7F" enable-background="new    " cx="320.186" cy="218.04" rx="39.275" ry="3.101"/>
<ellipse id="d_svg_47" fill="#BFBFBF" cx="319.75" cy="202.201" rx="13.5" ry="2.663"/>
<ellipse id="d_svg_58" fill="#7F7F7F" cx="321.719" cy="170.062" rx="9.844" ry="6.75"/>
<ellipse id="d_svg_59" fill="#7F7F7F" cx="311.031" cy="172.875" rx="9.844" ry="6.75"/>
<ellipse id="d_svg_60" opacity="0.5" fill="#FFFFFF" enable-background="new    " cx="310.504" cy="175.784" rx="9.775" ry="4.258"/>
<ellipse id="d_svg_55" fill="#BFBFBF" cx="311.752" cy="173.282" rx="9.844" ry="6.483"/>
<ellipse id="d_svg_4" fill="#BFBFBF" cx="322.074" cy="169.99" rx="9.844" ry="5.86"/>
<ellipse id="d_svg_12" opacity="0.5" fill="#FFFFFF" enable-background="new    " cx="330.437" cy="175.606" rx="9.598" ry="4.97"/>
<ellipse id="d_svg_62" fill="#7F7F7F" cx="330.719" cy="173.438" rx="9.844" ry="6.75"/>
<ellipse id="d_svg_9" fill="#BFBFBF" cx="329.727" cy="173.371" rx="9.844" ry="5.86"/>
<ellipse id="d_svg_63" transform="matrix(0.1877 -0.9822 0.9822 0.1877 70.2406 450.2134)" fill="#7F7F7F" cx="307.323" cy="182.639" rx="1.477" ry="3.87"/>
<ellipse id="d_svg_57" transform="matrix(0.1877 -0.9822 0.9822 0.1877 71.3738 450.1599)" fill="#BFBFBF" cx="307.857" cy="181.927" rx="1.477" ry="3.87"/>
<ellipse id="d_svg_64" transform="matrix(-0.2179 -0.976 0.976 -0.2179 234.9187 550.688)" fill="#7F7F7F" cx="338.114" cy="181.215" rx="1.477" ry="3.87"/>
<ellipse id="d_svg_65" transform="matrix(-0.121 -0.9927 0.9927 -0.121 198.292 537.3096)" fill="#BFBFBF" cx="337.046" cy="180.859" rx="1.477" ry="3.87"/>
<ellipse id="d_svg_42" fill="#BFBFBF" cx="320.312" cy="190.688" rx="13.5" ry="1.5"/>
<ellipse id="d_svg_66" opacity="0.8" fill="#3F3F3F" enable-background="new    " cx="320.08" cy="189.779" rx="8.543" ry="0.356"/>
<rect id="d_svg_67" x="318.122" y="188.177" fill="#BFBFBF" width="3.204" height="1.602"/>
<ellipse id="d_svg_68" fill="#7F7F7F" cx="310.275" cy="174.126" rx="4.148" ry="2.264"/>
<ellipse id="d_svg_69" fill="#BFBFBF" cx="312.174" cy="173.071" rx="3.516" ry="2.475"/>
<ellipse id="d_svg_70" fill="#7F7F7F" cx="314.916" cy="170.751" rx="4.148" ry="2.264"/>
<ellipse id="d_svg_71" fill="#BFBFBF" cx="314.916" cy="171.594" rx="3.305" ry="2.264"/>
<rect id="d_svg_74" x="321.147" y="189.645" opacity="0.5" fill="#B0B0F4" enable-background="new    " width="1.424" height="0.312"/>
<rect id="d_svg_75" x="321.147" y="188.978" opacity="0.5" fill="#B0B0F4" enable-background="new    " width="1.291" height="0.712"/>
<polygon id="d_svg_56" fill="#FF007F" points="278.177,193.91 275.189,193.998 274.474,196.472 273.223,194.021 270.224,194.003 
	272.438,192.4 271.3,189.915 273.92,191.375 276.215,189.857 275.619,192.363 278.177,193.91 275.189,193.998 "/>
<polygon id="d_svg_61" fill="#FF007F" points="373.949,207.287 370.573,206.036 368.334,208.7 368.371,205.17 365.044,203.786 
	368.444,202.855 368.627,199.335 370.69,202.29 374.131,201.499 372.006,204.255 373.949,207.287 370.573,206.036 "/>
<polygon id="d_svg_80" fill="#F28CBD" points="258.371,180.072 254.135,180.14 253.164,183.482 251.345,180.136 247.092,180.059 
	250.204,177.924 248.545,174.534 252.287,176.56 255.515,174.542 254.716,177.93 258.371,180.072 254.135,180.14 "/>
<polygon id="d_svg_81" fill="#F794C2" points="320.956,143.069 323.627,143.836 326.549,140.979 325.351,144.385 327.933,145.287 
	324.522,146.625 323.196,150.039 322.286,147.46 318.885,148.668 321.732,145.737 320.956,143.069 323.627,143.836 "/>
<polygon id="d_svg_82" fill="#FF5656" points="389.836,159.413 387.048,175 394.544,178.057 385.095,185.267 381.942,200.944 
	378.891,189.813 369.445,196.445 377.008,182.355 374.324,170.777 382.049,173.201 389.836,159.413 387.048,175 "/>
<polygon id="d_svg_51" fill="#F99DCA" points="388.336,159.413 385.548,175 393.044,178.057 383.595,185.267 380.442,200.944 
	377.391,189.813 367.945,196.445 375.508,182.355 372.824,170.777 380.549,173.201 388.336,159.413 385.548,175 "/>
<ellipse id="d_svg_100" opacity="0.1" fill="#FFFFFF" stroke="#FCFCED" stroke-width="5" enable-background="new    " cx="294.775" cy="293.925" rx="7.875" ry="1.875"/>
<polygon id="d_svg_102" fill="#965858" points="384.77,226.154 370.483,218.398 347.516,221.632 347.609,231.388 370.634,234.183 
	"/>
<polygon id="d_svg_98" fill="#8C1010" points="386.228,233.131 371.951,223.464 347.941,225.655 347.38,236.677 371.042,241.297 "/>
<ellipse id="d_svg_39" fill="#EDAAAA" stroke="#7F0000" cx="367.286" cy="258.161" rx="5.294" ry="10.978"/>
<ellipse id="d_svg_3" transform="matrix(0.0437 -0.999 0.999 0.0437 88.9893 617.3374)" fill="#EDAAAA" stroke="#7F0000" stroke-width="0.5" cx="366.965" cy="262.185" rx="8.009" ry="3.655"/>
<ellipse id="d_svg_6" transform="matrix(0.1749 -0.9846 0.9846 0.1749 42.0019 576.7582)" fill="#EDAAAA" cx="365.135" cy="263.318" rx="5.772" ry="3.014"/>
<path id="d_svg_21" fill="#7F0000" d="M293.369,240.397c-11.286-1.365-22.181-4.875-25.312,0.926
	c-3.132,5.801-1.272,1.292-1.258,1.211c0.015-0.08,2.964-6.303,2.979-6.383c0.015-0.081,0.689,0.486,3.996,0.119
	c3.307-0.367,7.624,0.836,7.639,0.755s7.539,2.012,7.554,1.931C288.98,238.877,293.369,240.397,293.369,240.397L293.369,240.397
	L293.369,240.397L293.369,240.397z"/>
<path id="d_svg_104" fill="#7F0000" stroke="#7F2323" stroke-width="0.3" d="M270.733,223.155c0,0-0.653-2.762,1.525-2.93
	s2.523-0.159,2.508-0.169s-3.264-0.843-3.744,0.105S270.733,223.155,270.733,223.155L270.733,223.155L270.733,223.155z"/>
</svg>
